<svg width="24" height="24" viewBox="0 0 24 24" fill="none" xmlns="http://www.w3.org/2000/svg">
<path d="M6.00003 7C6.00003 7.55228 6.44774 8 7.00003 8C7.55231 8 8.00003 7.55228 8.00003 7H6.00003ZM8.00003 17C8.00003 16.4477 7.55231 16 7.00003 16C6.44774 16 6.00003 16.4477 6.00003 17H8.00003ZM8.09205 20.782L8.54604 19.891L8.54603 19.891L8.09205 20.782ZM7.21801 19.908L6.32701 20.362L7.21801 19.908ZM20.782 19.908L21.673 20.362L20.782 19.908ZM19.908 20.782L19.454 19.891L19.454 19.891L19.908 20.782ZM19.908 3.21799L19.454 4.10899V4.10899L19.908 3.21799ZM20.782 4.09202L19.891 4.54601V4.54601L20.782 4.09202ZM7.21801 4.09202L8.10902 4.54601L7.21801 4.09202ZM8.09205 3.21799L7.63806 2.32698V2.32698L8.09205 3.21799ZM14 13C14.5523 13 15 12.5523 15 12C15 11.4477 14.5523 11 14 11V13ZM3.00003 11C2.44774 11 2.00003 11.4477 2.00003 12C2.00003 12.5523 2.44774 13 3.00003 13V11ZM4.83208 9.5547C5.13843 9.09517 5.01426 8.4743 4.55473 8.16795C4.0952 7.8616 3.47433 7.98577 3.16798 8.4453L4.83208 9.5547ZM2.18493 11.7227L3.01698 12.2774H3.01698L2.18493 11.7227ZM2.18493 12.2774L3.01698 11.7227L2.18493 12.2774ZM3.16798 15.5547C3.47433 16.0142 4.0952 16.1384 4.55473 15.8321C5.01426 15.5257 5.13843 14.9048 4.83208 14.4453L3.16798 15.5547ZM8.00003 7V6.2H6.00003V7H8.00003ZM10.2 4H17.8V2H10.2V4ZM20 6.2V17.8H22V6.2H20ZM17.8 20H10.2V22H17.8V20ZM8.00003 17.8V17H6.00003V17.8H8.00003ZM10.2 20C9.62347 20 9.2512 19.9992 8.96786 19.9761C8.6962 19.9539 8.59548 19.9162 8.54604 19.891L7.63806 21.673C8.01644 21.8658 8.40965 21.9371 8.805 21.9694C9.18867 22.0008 9.65648 22 10.2 22V20ZM6.00003 17.8C6.00003 18.3436 5.99925 18.8114 6.0306 19.195C6.0629 19.5904 6.13421 19.9836 6.32701 20.362L8.10902 19.454C8.08383 19.4045 8.04615 19.3038 8.02395 19.0322C8.0008 18.7488 8.00003 18.3766 8.00003 17.8H6.00003ZM8.54603 19.891C8.35787 19.7951 8.20489 19.6422 8.10902 19.454L6.32701 20.362C6.61463 20.9265 7.07357 21.3854 7.63806 21.673L8.54603 19.891ZM20 17.8C20 18.3766 19.9992 18.7488 19.9761 19.0322C19.9539 19.3038 19.9162 19.4045 19.891 19.454L21.673 20.362C21.8658 19.9836 21.9372 19.5904 21.9695 19.195C22.0008 18.8114 22 18.3436 22 17.8H20ZM17.8 22C18.3436 22 18.8114 22.0008 19.1951 21.9694C19.5904 21.9371 19.9836 21.8658 20.362 21.673L19.454 19.891C19.4046 19.9162 19.3039 19.9539 19.0322 19.9761C18.7489 19.9992 18.3766 20 17.8 20V22ZM19.891 19.454C19.7952 19.6422 19.6422 19.7951 19.454 19.891L20.362 21.673C20.9265 21.3854 21.3854 20.9265 21.673 20.362L19.891 19.454ZM17.8 4C18.3766 4 18.7489 4.00078 19.0322 4.02393C19.3039 4.04612 19.4046 4.0838 19.454 4.10899L20.362 2.32698C19.9836 2.13419 19.5904 2.06287 19.1951 2.03057C18.8114 1.99922 18.3436 2 17.8 2V4ZM22 6.2C22 5.65645 22.0008 5.18864 21.9695 4.80497C21.9372 4.40963 21.8658 4.01641 21.673 3.63803L19.891 4.54601C19.9162 4.59545 19.9539 4.69617 19.9761 4.96784C19.9992 5.25117 20 5.62345 20 6.2H22ZM19.454 4.10899C19.6422 4.20487 19.7952 4.35785 19.891 4.54601L21.673 3.63803C21.3854 3.07354 20.9265 2.6146 20.362 2.32698L19.454 4.10899ZM8.00003 6.2C8.00003 5.62345 8.0008 5.25117 8.02395 4.96784C8.04615 4.69617 8.08383 4.59545 8.10902 4.54601L6.32701 3.63803C6.13421 4.01641 6.0629 4.40963 6.0306 4.80497C5.99925 5.18864 6.00003 5.65645 6.00003 6.2H8.00003ZM10.2 2C9.65648 2 9.18867 1.99922 8.805 2.03057C8.40965 2.06287 8.01644 2.13419 7.63806 2.32698L8.54604 4.10899C8.59548 4.0838 8.6962 4.04612 8.96786 4.02393C9.2512 4.00078 9.62347 4 10.2 4V2ZM8.10902 4.54601C8.20489 4.35785 8.35787 4.20487 8.54604 4.10899L7.63806 2.32698C7.07357 2.6146 6.61463 3.07354 6.32701 3.63803L8.10902 4.54601ZM14 11H3.00003V13H14V11ZM3.16798 8.4453L1.35288 11.168L3.01698 12.2774L4.83208 9.5547L3.16798 8.4453ZM1.35288 12.8321L3.16798 15.5547L4.83208 14.4453L3.01698 11.7227L1.35288 12.8321ZM1.35288 11.168C1.01698 11.6718 1.01698 12.3282 1.35288 12.8321L3.01698 11.7227C3.12894 11.8906 3.12894 12.1094 3.01698 12.2774L1.35288 11.168Z" fill="black"/>
</svg>
