<svg width="21" height="23" viewBox="0 0 21 23" fill="none" xmlns="http://www.w3.org/2000/svg">
<path d="M0 20.0969V8.42771C0 8.01713 0.0920563 7.62816 0.276169 7.2608C0.460282 6.89344 0.713979 6.5909 1.03726 6.3532L8.81668 0.518629C9.27048 0.172876 9.78911 0 10.3726 0C10.956 0 11.4747 0.172876 11.9285 0.518629L19.7079 6.3532C20.032 6.5909 20.2861 6.89344 20.4703 7.2608C20.6544 7.62816 20.746 8.01713 20.7451 8.42771V20.0969C20.7451 20.81 20.491 21.4207 19.9828 21.9289C19.4745 22.4372 18.8642 22.6909 18.152 22.69H14.2623C13.8949 22.69 13.5872 22.5655 13.3391 22.3166C13.091 22.0676 12.9666 21.7599 12.9657 21.3934V14.9106C12.9657 14.5432 12.8412 14.2355 12.5923 13.9874C12.3434 13.7393 12.0356 13.6149 11.6691 13.614H9.076C8.70864 13.614 8.40092 13.7385 8.15284 13.9874C7.90476 14.2364 7.78029 14.5441 7.77943 14.9106V21.3934C7.77943 21.7608 7.65495 22.0689 7.40601 22.3179C7.15707 22.5668 6.84935 22.6909 6.48285 22.69H2.59314C1.88003 22.69 1.26978 22.4363 0.762384 21.9289C0.254992 21.4215 0.000864381 20.8108 0 20.0969Z" fill="#202223"/>
</svg>
