<svg width="24" height="25" viewBox="0 0 24 25" fill="none" xmlns="http://www.w3.org/2000/svg">
<path d="M6 20.6899C5.45 20.6899 4.97933 20.4943 4.588 20.1029C4.19667 19.7116 4.00067 19.2406 4 18.6899C3.99934 18.1393 4.19533 17.6686 4.588 17.2779C4.98067 16.8873 5.45133 16.6913 6 16.6899C6.54867 16.6886 7.01967 16.8846 7.413 17.2779C7.80634 17.6713 8.002 18.1419 8 18.6899C7.998 19.2379 7.80234 19.7089 7.413 20.1029C7.02367 20.4969 6.55267 20.6926 6 20.6899ZM6 14.6899C5.45 14.6899 4.97933 14.4943 4.588 14.1029C4.19667 13.7116 4.00067 13.2406 4 12.6899C3.99934 12.1393 4.19533 11.6686 4.588 11.2779C4.98067 10.8873 5.45133 10.6913 6 10.6899C6.54867 10.6886 7.01967 10.8846 7.413 11.2779C7.80634 11.6713 8.002 12.1419 8 12.6899C7.998 13.2379 7.80234 13.7089 7.413 14.1029C7.02367 14.4969 6.55267 14.6926 6 14.6899ZM6 8.68995C5.45 8.68995 4.97933 8.49428 4.588 8.10295C4.19667 7.71161 4.00067 7.24061 4 6.68995C3.99934 6.13928 4.19533 5.66861 4.588 5.27795C4.98067 4.88728 5.45133 4.69128 6 4.68995C6.54867 4.68861 7.01967 4.88461 7.413 5.27795C7.80634 5.67128 8.002 6.14195 8 6.68995C7.998 7.23795 7.80234 7.70895 7.413 8.10295C7.02367 8.49695 6.55267 8.69261 6 8.68995ZM12 8.68995C11.45 8.68995 10.9793 8.49428 10.588 8.10295C10.1967 7.71161 10.0007 7.24061 10 6.68995C9.99934 6.13928 10.1953 5.66861 10.588 5.27795C10.9807 4.88728 11.4513 4.69128 12 4.68995C12.5487 4.68861 13.0197 4.88461 13.413 5.27795C13.8063 5.67128 14.002 6.14195 14 6.68995C13.998 7.23795 13.8023 7.70895 13.413 8.10295C13.0237 8.49695 12.5527 8.69261 12 8.68995ZM18 8.68995C17.45 8.68995 16.9793 8.49428 16.588 8.10295C16.1967 7.71161 16.0007 7.24061 16 6.68995C15.9993 6.13928 16.1953 5.66861 16.588 5.27795C16.9807 4.88728 17.4513 4.69128 18 4.68995C18.5487 4.68861 19.0197 4.88461 19.413 5.27795C19.8063 5.67128 20.002 6.14195 20 6.68995C19.998 7.23795 19.8023 7.70895 19.413 8.10295C19.0237 8.49695 18.5527 8.69261 18 8.68995ZM12 14.6899C11.45 14.6899 10.9793 14.4943 10.588 14.1029C10.1967 13.7116 10.0007 13.2406 10 12.6899C9.99934 12.1393 10.1953 11.6686 10.588 11.2779C10.9807 10.8873 11.4513 10.6913 12 10.6899C12.5487 10.6886 13.0197 10.8846 13.413 11.2779C13.8063 11.6713 14.002 12.1419 14 12.6899C13.998 13.2379 13.8023 13.7089 13.413 14.1029C13.0237 14.4969 12.5527 14.6926 12 14.6899ZM13 20.6899V17.6149L18.525 12.1149C18.675 11.9649 18.8417 11.8566 19.025 11.7899C19.2083 11.7233 19.3917 11.6899 19.575 11.6899C19.775 11.6899 19.9667 11.7276 20.15 11.8029C20.3333 11.8783 20.5 11.9906 20.65 12.1399L21.575 13.0649C21.7083 13.2149 21.8127 13.3816 21.888 13.5649C21.9633 13.7483 22.0007 13.9316 22 14.1149C21.9993 14.2983 21.966 14.4859 21.9 14.6779C21.834 14.8699 21.7257 15.0406 21.575 15.1899L16.075 20.6899H13ZM19.575 15.0899L20.5 14.1149L19.575 13.1899L18.625 14.1399L19.575 15.0899Z" fill="black"/>
</svg>
