<svg width="25" height="26" viewBox="0 0 25 26" fill="none" xmlns="http://www.w3.org/2000/svg">
<mask id="mask0_595_1899" style="mask-type:alpha" maskUnits="userSpaceOnUse" x="0" y="0" width="25" height="26">
<mask id="mask1_595_1899" style="mask-type:luminance" maskUnits="userSpaceOnUse" x="0" y="0" width="25" height="26">
<path d="M25 0.689941H0V25.6899H25V0.689941Z" fill="white"/>
</mask>
<g mask="url(#mask1_595_1899)">
<path d="M23.2954 21.1451H19.3182C16.8119 21.1451 14.7728 19.106 14.7728 16.5998C14.7728 14.0935 16.8119 12.0544 19.3182 12.0544H23.2954C23.6095 12.0544 23.8636 11.8003 23.8636 11.4862V9.78171C23.8636 8.59024 22.9394 7.62128 21.7718 7.52731L18.5087 1.82783C18.2063 1.30071 17.718 0.923961 17.1338 0.767518C16.5522 0.61214 15.9442 0.693744 15.4237 0.996669L4.23762 7.50898H2.27301C1.01961 7.50898 0.000305176 8.52824 0.000305176 9.78171V23.4178C0.000305176 24.6712 1.01955 25.6905 2.27301 25.6905H21.5909C22.8443 25.6905 23.8636 24.6713 23.8636 23.4178V21.7133C23.8636 21.3993 23.6095 21.1451 23.2954 21.1451ZM19.2134 5.34661L20.4514 7.50898H15.4992L19.2134 5.34661ZM6.49612 7.50898L15.9957 1.97874C16.2526 1.82837 16.5528 1.78842 16.8397 1.86501C17.1299 1.94268 17.3718 2.13023 17.5222 2.39267L17.5233 2.39475L8.73922 7.50898H6.49612Z" fill="#3A3B3B"/>
<path d="M23.2952 13.1898H19.318C17.4381 13.1898 15.9089 14.719 15.9089 16.5989C15.9089 18.4788 17.4381 20.0079 19.318 20.0079H23.2952C24.2351 20.0079 24.9997 19.2433 24.9997 18.3034V14.8944C24.9997 13.9544 24.2351 13.1898 23.2952 13.1898ZM19.318 17.7352C18.6916 17.7352 18.1816 17.2253 18.1816 16.5989C18.1816 15.9725 18.6916 15.4626 19.318 15.4626C19.9444 15.4626 20.4543 15.9725 20.4543 16.5989C20.4544 17.2253 19.9444 17.7352 19.318 17.7352Z" fill="#3A3B3B"/>
</g>
</mask>
<g mask="url(#mask0_595_1899)">
<path d="M25 1.35681H0V26.3568H25V1.35681Z" fill="#202223"/>
<path d="M21.0001 -0.976807H4.66675C3.56218 -0.976807 2.66675 -0.0813762 2.66675 1.02319V5.68986C2.66675 6.79443 3.56218 7.68986 4.66675 7.68986H21.0001C22.1047 7.68986 23.0001 6.79443 23.0001 5.68986V1.02319C23.0001 -0.0813762 22.1047 -0.976807 21.0001 -0.976807Z" fill="#202223"/>
</g>
</svg>
