<svg width="44" height="45" viewBox="0 0 44 45" fill="none" xmlns="http://www.w3.org/2000/svg">
<circle cx="22" cy="22.1224" r="22" fill="#D9D9D9"/>
<path d="M35.0963 22.0402C35.0963 21.827 35.0963 21.6137 35.0441 21.4005C35.0441 21.1873 34.9919 20.9741 34.9397 20.7608C34.9397 20.7608 34.9397 20.7608 34.9397 20.7182C33.9479 15.8567 28.9892 12.0612 22.8821 11.8907L21.4206 11.848C21.3684 11.848 21.3162 11.848 21.264 11.848C20.5854 11.848 19.959 11.848 19.3327 11.9333C19.2805 11.9333 19.2805 11.9333 19.2283 11.9333C16.5662 12.2318 14.1129 13.2553 12.286 14.7905C9.98932 16.6243 8.52779 19.183 8.4234 22.0828V22.7651C8.4234 27.2429 11.8684 31.0383 16.7228 32.4882C17.8189 32.8294 18.9673 33.0426 20.1678 33.1279C20.481 33.1705 20.8464 33.1705 21.1596 33.1705H22.5689C26.0661 33.1705 29.198 31.9765 31.4425 30.1427C32.0166 29.6736 32.5386 29.1619 33.0084 28.6502C33.165 28.4369 33.3738 28.2237 33.4782 28.0105C33.7913 27.584 34.0523 27.1149 34.3133 26.6458C34.3655 26.5179 34.4699 26.3473 34.5221 26.2194C34.6787 25.8356 34.8353 25.4091 34.9397 24.9827C34.9397 24.94 34.9397 24.8974 34.9397 24.8974C35.0963 24.2577 35.2007 23.5754 35.2007 22.8504C35.2007 22.7651 35.2007 22.6799 35.2007 22.5519C35.0963 22.3387 35.0963 22.1681 35.0963 22.0402ZM15.731 25.7077C15.2091 25.4091 14.5305 25.2812 13.9041 25.3665L16.0442 24.4283C16.3574 24.6415 16.6184 24.94 16.7228 25.2812L15.731 25.7077Z" fill="#263238"/>
<path d="M30.7605 16.7516C31.0215 18.6707 30.3429 20.5897 28.8814 22.0823C25.9061 24.9395 21.3128 26.2188 16.8238 25.4939C19.6946 24.0866 22.4089 22.594 25.0188 20.9309C29.1424 18.3722 30.7605 16.7516 30.7605 16.7516Z" fill="#37474F"/>
<path d="M33.4747 23.0206C33.4747 22.85 33.4747 22.7221 33.4225 22.5515C33.4225 22.5089 33.4225 22.4236 33.4225 22.381C33.0049 19.0546 31.8044 17.2636 30.7604 16.7092C30.2384 19.2252 28.5681 21.4001 26.1148 22.8927C25.8538 23.0633 25.5929 23.1912 25.2797 23.3191C24.9665 23.4897 24.6533 23.6177 24.2879 23.7882C23.0352 24.3 21.8347 24.6838 20.8429 24.9397C20.5819 24.9823 20.3731 25.0249 20.1121 25.1102C18.3374 25.4514 17.1369 25.4514 16.8237 25.4514C16.7715 25.4514 16.7193 25.4514 16.7193 25.4514C16.7193 25.3661 16.6671 25.3235 16.6671 25.2382C16.5105 24.897 16.2495 24.6411 15.9885 24.3853C15.049 23.7029 13.4831 23.575 12.5435 24.3426C12.4391 24.4279 12.2825 24.5559 12.2303 24.6838C11.0298 26.0911 11.4474 28.0101 13.1177 28.9909C15.31 30.2703 16.6149 29.1189 16.6149 29.1189V36.795C16.6149 36.795 17.3979 38.8846 20.8951 38.8846C24.3923 38.8846 24.6011 36.795 24.6011 36.795L24.7055 34.6627L24.7577 33.5966C26.7412 33.9378 28.8291 34.1936 29.8731 33.8525C30.8126 33.5539 32.5351 32.5731 33.2137 28.9483C33.2659 28.6071 33.3181 28.266 33.3703 27.9248C33.4225 27.6689 33.4225 27.4131 33.4747 27.1146C33.4747 27.0293 33.4747 26.9013 33.4747 26.816C33.4747 26.6455 33.4747 26.5175 33.4747 26.3469C33.5791 25.1529 33.5791 24.0441 33.4747 23.0206Z" fill="#FFA8A7"/>
<path d="M19.6964 8.05245C20.8969 10.3979 19.2266 13.2551 15.9382 14.3639C12.6498 15.4727 8.99594 14.5345 7.7432 12.1464C6.49046 9.75825 8.21297 6.98633 11.5014 5.83491C14.7898 4.6835 18.4437 5.70698 19.6964 8.05245Z" fill="#263238"/>
<path d="M21.2617 9.88776L18.965 11.8494C19.5914 12.3612 20.5832 12.4038 21.2095 11.8921L21.2617 11.8494C21.9403 11.2524 21.8881 10.3995 21.2617 9.88776Z" fill="#263238"/>
<path d="M25.4903 25.3258C25.4903 25.7096 25.1771 26.0082 24.7074 26.0508C24.2376 26.0508 23.8722 25.7523 23.8722 25.3685C23.8722 24.9847 24.2376 24.6862 24.7074 24.6862C25.1249 24.6862 25.4903 24.9847 25.4903 25.3258Z" fill="#263238"/>
<path d="M26.2731 29.9282L28.1522 30.4826C27.9956 30.9091 27.4215 31.1649 26.8995 31.037C26.8995 31.037 26.8995 31.037 26.8473 31.037C26.3775 30.8238 26.0643 30.3547 26.2731 29.9282Z" fill="#F28F8F"/>
<path d="M32.59 22.979L30.6587 22.4247C30.8153 21.9982 31.3373 21.785 31.8593 21.9129H31.9115C32.4856 22.0408 32.7466 22.5099 32.59 22.979Z" fill="#263238"/>
<path d="M31.9105 25.0288C31.9627 25.4126 31.5973 25.7111 31.1798 25.7537C30.7622 25.7964 30.3446 25.4978 30.2924 25.1567C30.2924 25.114 30.2924 25.0714 30.2924 25.0714C30.2924 24.6876 30.6056 24.3891 31.0754 24.3464C31.493 24.3464 31.9105 24.6449 31.9105 25.0288Z" fill="#263238"/>
<path d="M27.8936 24.5164L27.8414 28.6103L30.5035 28.0132L27.8936 24.5164Z" fill="#F28F8F"/>
<path d="M24.7598 33.6382C22.6719 33.3397 18.3395 32.231 17.7131 30.8237C17.9741 31.5486 18.4439 32.1883 19.1746 32.6574C20.4274 33.5956 24.7076 34.747 24.7076 34.747L24.7598 33.6382Z" fill="#F28F8F"/>
<path d="M20.4271 23.8347L20.2184 23.92L16.6689 25.242C16.5123 24.9008 16.2513 24.645 15.9904 24.3891L20.114 22.7686L20.2184 22.726L20.4271 23.8347Z" fill="#455A64"/>
<path d="M35.6675 22.5066C34.1016 22.2933 32.5356 22.336 30.9697 22.6345C29.5604 22.9757 29.1428 23.3595 28.3598 23.4021C27.5769 23.4021 27.0549 23.0183 25.5934 22.6771C24.0275 22.4639 22.4615 22.4639 20.8956 22.6345C20.3736 22.6345 19.8517 22.8051 19.9039 23.3168C19.9561 23.8286 20.3736 23.9138 20.478 24.3403C20.6868 25.7902 21.1044 27.5813 23.4533 27.6666C28.2033 27.9225 26.7417 24.1271 28.4642 24.3403C29.0906 24.4682 28.9862 25.4491 29.3516 26.174C29.5082 26.4725 29.6648 26.7284 29.9258 26.9416C31.4395 28.2636 34.4147 27.5387 34.8845 26.2167C35.3021 25.5344 35.2499 24.5109 35.6675 23.9138C36.0329 23.658 36.346 22.6771 35.6675 22.5066ZM26.5329 25.4491C26.4285 25.8329 26.2198 26.2167 25.8544 26.5152C25.3324 26.9416 24.6016 27.1549 23.8709 27.1122C22.8269 27.1975 21.8874 26.6858 21.5742 25.8755C21.522 25.7902 21.4698 25.7049 21.4698 25.6623C21.261 25.0653 21 23.7859 21.4176 23.4021C22.1484 22.8051 25.5412 22.8477 26.5329 23.7859C26.8461 24.1697 26.7417 24.852 26.5329 25.4491ZM32.901 22.933C35.0933 22.933 35.1455 23.4021 34.7279 25.1505C34.6235 25.8755 34.1016 26.4725 33.3708 26.8563C32.0659 27.4107 30.239 26.8137 29.978 25.7902C29.195 23.658 30.239 23.1462 32.901 22.933Z" fill="#455A64"/>
</svg>
